<svg xmlns:xlink="http://www.w3.org/1999/xlink" xmlns="http://www.w3.org/2000/svg" width="1920.1" height="150" preserveAspectRatio="none" viewBox="0 0 1920.1 150" class="" fill="#FF5135"><defs><symbol id="shape_JPGhzvPwyQ" viewBox="0 0 1920.1 150"><defs><style>.shape_JPGhzvPwyQ.cls-1{opacity:0.1;}.shape_JPGhzvPwyQ.cls-2{opacity:0.3;}</style></defs><path class="cls-1 shape_JPGhzvPwyQ" d="M0,150S102,28.4,258,24.4c0,0,68.8-3.7,153.7,17,99.9,24.3,253.7,37.3,411,19.3S1204-4.6,1408,.4,1696,39,1920,150Z" transform="translate(0.1 0)"></path><path class="cls-2 shape_JPGhzvPwyQ" d="M-.1,150S97.5,47,240,35.5c0,0,79.5-8.5,210,22.5S781.3,74,822.7,69,1168,21,1234,16s257.3-18.7,394,20.7S1920,150,1920,150Z" transform="translate(0.1 0)"></path><path class="cls-3 shape_JPGhzvPwyQ" d="M1655.4,51c-14.4-3.8-217.4-68.2-641.8,0C596,118.2,469,66,371.7,51,208.9,25,107.5,79,107.5,79,60,102-.1,150-.1,150H1920S1780,87.5,1655.4,51Z" transform="translate(0.1 0)"></path></symbol></defs><use xlink:href="#shape_JPGhzvPwyQ"></use></svg>