<svg width="32" height="32" viewBox="0 0 32 32" fill="none" xmlns="http://www.w3.org/2000/svg">
<path d="M26.9055 4.57614C26.2341 3.96608 23.3358 2.14504 17.2885 2.11866C17.2885 2.11866 10.1276 1.64817 6.65147 4.79675C4.71676 6.707 4.06498 9.54768 3.99352 13.0142C3.92206 16.4808 3.55181 23.1031 9.89262 24.8647C9.89262 24.8647 9.86768 29.7811 9.8648 30.2132C9.8648 30.5154 9.91276 30.7221 10.0854 30.7648C10.2096 30.795 10.3957 30.7307 10.554 30.5729C11.5679 29.5547 14.8138 25.6388 14.8138 25.6388C19.1691 25.9232 22.6342 25.0633 23.0068 24.9414C23.8855 24.659 28.6378 24.2508 29.4421 17.7541C30.2733 11.0575 29.1366 6.48639 26.9055 4.57614V4.57614Z" fill="#7360F2"/>
<path fill-rule="evenodd" clip-rule="evenodd" d="M17.5435 10.2114C17.5552 9.98839 17.7454 9.81705 17.9683 9.82868C18.8026 9.87221 19.4967 10.1247 19.9911 10.6359C20.4835 11.145 20.7249 11.8564 20.7673 12.7107C20.7784 12.9337 20.6066 13.1234 20.3835 13.1345C20.1605 13.1456 19.9708 12.9737 19.9597 12.7507C19.9234 12.0194 19.7228 11.5216 19.4098 11.198C19.0988 10.8764 18.6241 10.6726 17.9262 10.6362C17.7032 10.6246 17.5319 10.4344 17.5435 10.2114Z" fill="white"/>
<path fill-rule="evenodd" clip-rule="evenodd" d="M16.9308 8.03301C16.9471 7.81032 17.1408 7.643 17.3635 7.6593C19.0614 7.78356 20.4279 8.36368 21.4234 9.45028L21.4235 9.45043C22.4081 10.5263 22.8761 11.8648 22.8421 13.4347C22.8373 13.6579 22.6524 13.8349 22.4292 13.8301C22.2059 13.8253 22.0289 13.6404 22.0337 13.4172C22.0637 12.0327 21.6565 10.9028 20.827 9.99634C20 9.09365 18.8439 8.57841 17.3045 8.46575C17.0818 8.44945 16.9145 8.25571 16.9308 8.03301Z" fill="white"/>
<path fill-rule="evenodd" clip-rule="evenodd" d="M16.2168 5.96203C16.2184 5.73875 16.4006 5.559 16.6239 5.56056C18.9702 5.5769 20.9535 6.35801 22.5458 7.91029C24.1515 9.47555 24.9455 11.6065 24.9657 14.2531C24.9674 14.4764 24.7877 14.6588 24.5645 14.6605C24.3412 14.6622 24.1588 14.4826 24.1571 14.2593C24.1382 11.7793 23.4004 9.87262 21.9814 8.4893C20.549 7.09299 18.7706 6.38414 16.6183 6.36914C16.395 6.36759 16.2153 6.18532 16.2168 5.96203Z" fill="white"/>
<path d="M18.0274 18.1454C18.0274 18.1454 18.5957 18.1933 18.9017 17.8164L19.4983 17.0658C19.7861 16.6936 20.4805 16.4562 21.1606 16.8351C21.6702 17.1257 22.165 17.4417 22.6431 17.7818C23.0944 18.1137 24.0186 18.8849 24.0214 18.8849C24.4617 19.2566 24.5634 19.8024 24.2636 20.3779C24.2636 20.3813 24.2612 20.387 24.2612 20.3899C23.9311 20.9622 23.512 21.4783 23.0195 21.9189C23.0138 21.9217 23.0138 21.9246 23.0085 21.9275C22.5807 22.285 22.1604 22.4882 21.7476 22.5371C21.6869 22.5477 21.6251 22.5516 21.5635 22.5486C21.3815 22.5503 21.2004 22.5225 21.0273 22.4661L21.0139 22.4464C20.3779 22.2671 19.3161 21.8182 17.5478 20.8426C16.5245 20.2848 15.5503 19.6413 14.6356 18.919C14.1772 18.5571 13.7399 18.1693 13.3259 17.7574L13.2817 17.7132L13.2376 17.6691L13.1935 17.625C13.1786 17.6106 13.1642 17.5957 13.1494 17.5809C12.7374 17.1669 12.3496 16.7295 11.9878 16.2711C11.2656 15.3565 10.6221 14.3825 10.0641 13.3594C9.08857 11.5907 8.63967 10.5298 8.4603 9.89287L8.44063 9.87944C8.38441 9.70634 8.35671 9.52524 8.35862 9.34325C8.35526 9.28164 8.35896 9.21985 8.36965 9.15908C8.42113 8.74694 8.62464 8.32633 8.98018 7.89725C8.98306 7.89197 8.98594 7.89197 8.98882 7.88622C9.42923 7.39382 9.94537 6.97482 10.5178 6.64501C10.5207 6.64501 10.5264 6.64213 10.5298 6.64213C11.1053 6.34238 11.6511 6.44406 12.0223 6.88193C12.0252 6.88481 12.7949 7.809 13.1254 8.26031C13.4655 8.73882 13.7815 9.23407 14.0721 9.74419C14.451 10.4238 14.2136 11.1197 13.8414 11.4065L13.0908 12.0031C12.712 12.3091 12.7618 12.8774 12.7618 12.8774C12.7618 12.8774 13.8736 17.085 18.0274 18.1454V18.1454Z" fill="white"/>
</svg>
